<svg xmlns="http://www.w3.org/2000/svg" width="80" height="80" viewBox="0 0 2048 2048" version="1.1"><path d="M 912 377.116 C 815.047 384.855, 721.206 416.048, 641 467.198 C 581.540 505.117, 527.751 555.274, 485.175 612.500 C 447.044 663.751, 420.590 714.811, 399.989 776.924 C 385.700 820.004, 377.239 859.236, 372.475 904.500 C 370.255 925.587, 369.430 975.375, 370.932 997.583 C 379.147 1119.031, 422.425 1231.784, 496.721 1325.299 C 546.007 1387.334, 609.032 1440.216, 676.500 1476.144 C 765.932 1523.769, 857.958 1547.113, 955.687 1546.964 C 998.109 1546.899, 1029.292 1543.882, 1069.046 1535.995 C 1167.468 1516.470, 1263.644 1469.630, 1338 1405.010 C 1354.007 1391.099, 1385.762 1359.211, 1399.751 1343 C 1471.896 1259.397, 1519.681 1154.050, 1535.420 1043.897 C 1539.991 1011.911, 1540.501 1003.487, 1540.473 960.500 C 1540.452 928.135, 1540.077 916.236, 1538.693 904 C 1533.256 855.905, 1525.366 819.217, 1511.489 777.500 C 1481.586 687.607, 1431.495 607.363, 1364.694 542.340 C 1264.730 445.036, 1137.636 387.948, 996.605 377.001 C 981.517 375.830, 927.190 375.904, 912 377.116 M 916 396.126 C 817.453 403.360, 724.221 435.365, 641 490.529 C 610.432 510.792, 588.730 528.474, 560.644 556 C 532.016 584.057, 514.365 604.464, 494.619 632.335 C 423.178 733.175, 386.385 852.423, 389.356 973.500 C 390.491 1019.764, 395.935 1059.432, 407.123 1102.957 C 411.416 1119.659, 424.646 1160.663, 426.014 1161.509 C 426.864 1162.034, 616.773 1077.729, 617.994 1076.284 C 618.358 1075.853, 617.946 1042.425, 617.078 1002 L 615.500 928.500 612.500 928.292 C 610.850 928.177, 594.650 927.599, 576.500 927.006 C 542.154 925.884, 525.132 924.445, 504 920.881 C 480.999 917.001, 463.307 911.611, 464.236 908.767 C 465.189 905.845, 474.347 905.645, 528.820 907.357 C 558.894 908.302, 590.518 909.350, 599.095 909.687 L 614.689 910.300 614.595 851.900 C 614.503 795.539, 614.580 792.994, 616.805 779 C 621.124 751.829, 626.714 730.238, 629.682 729.266 C 633.410 728.045, 633.843 736.083, 636.115 848.750 L 637.370 911 639.935 910.998 C 656.602 910.985, 739.090 914.393, 750.460 915.564 C 784.443 919.066, 817.271 926.786, 818.741 931.623 C 819.679 934.709, 806.127 934.698, 711.539 931.532 C 671.410 930.188, 638.408 929.259, 638.200 929.467 C 637.634 930.033, 640.721 1065.054, 641.314 1065.647 C 641.595 1065.928, 691.477 1044.008, 752.163 1016.935 C 812.848 989.862, 863.951 967.376, 865.725 966.967 C 868.254 966.383, 871.708 967.189, 881.725 970.699 C 888.751 973.162, 908.112 979.809, 924.750 985.472 L 955 995.767 954.977 977.133 C 954.947 952.332, 951.220 735.886, 950.816 735.485 C 950.642 735.313, 922.600 735.563, 888.500 736.042 C 791.269 737.408, 746.774 737.248, 728.890 735.469 C 687.416 731.342, 641.666 722.230, 626.250 715.026 C 619.425 711.837, 618.524 710.028, 622.750 708.003 C 626.212 706.345, 631.322 706.239, 808.668 704.156 C 886.310 703.244, 950.028 702.273, 950.263 701.999 C 950.497 701.724, 950.281 679.675, 949.783 653 C 948.186 567.611, 949.059 543.007, 955.107 503 C 960.885 464.772, 970.560 430, 975.419 430 C 977.597 430, 979.001 435.577, 979.564 446.464 C 979.850 451.984, 980.975 511.598, 982.065 578.940 C 983.155 646.282, 984.221 701.554, 984.434 701.767 C 984.646 701.980, 1021.873 701.654, 1067.160 701.043 C 1124.977 700.263, 1153.670 700.245, 1163.500 700.980 C 1216.520 704.949, 1277.744 717.430, 1285.335 725.818 C 1289.976 730.946, 1288.352 731.022, 1132.151 733.006 C 1051.659 734.028, 985.536 735.131, 985.210 735.456 C 984.643 736.023, 987.365 929.322, 988.679 981.834 L 989.314 1007.169 991.907 1008.183 C 994.133 1009.053, 1219.807 1086.065, 1274.407 1104.587 C 1284.805 1108.114, 1293.693 1111, 1294.157 1111 C 1294.620 1111, 1295 1068.096, 1295 1015.657 L 1295 920.314 1244.250 919.678 C 1216.338 919.328, 1189 918.564, 1183.500 917.980 C 1142.971 913.680, 1109.237 905.180, 1116.032 900.980 C 1119.242 898.996, 1134.480 898.728, 1212.750 899.276 C 1257.987 899.593, 1295.082 899.773, 1295.182 899.676 C 1295.283 899.579, 1295.671 872.050, 1296.044 838.500 C 1296.648 784.300, 1296.958 775.826, 1298.827 762.482 C 1302.944 733.085, 1308.107 711.639, 1312.046 707.571 C 1313.886 705.670, 1313.929 705.682, 1314.957 708.386 C 1315.654 710.221, 1316 742.417, 1316 805.565 L 1316 900 1351.250 900.020 C 1393.986 900.044, 1413.750 901.752, 1443.819 908.020 C 1459.444 911.277, 1472 915.705, 1472 917.958 C 1472 918.457, 1470.987 919.233, 1469.750 919.683 C 1468.513 920.132, 1433.486 920.332, 1391.914 920.126 L 1316.328 919.752 1315.666 952.126 C 1314.645 1002.017, 1314.846 1117.787, 1315.955 1118.472 C 1317.608 1119.494, 1478.154 1174, 1479.509 1174 C 1481.703 1174, 1495.600 1133.966, 1502.420 1108 C 1529.760 1003.899, 1527.872 897.665, 1496.856 795 C 1460.098 673.331, 1378.397 562.995, 1272.500 492.010 C 1188.115 435.446, 1094.449 403.333, 992.500 396.013 C 976.187 394.842, 932.616 394.906, 916 396.126 M 754 1039.084 C 692.675 1066.517, 642.220 1089.082, 641.877 1089.231 C 640.928 1089.641, 644.663 1251.069, 645.644 1252.002 C 646.115 1252.450, 652.350 1255.389, 659.500 1258.533 C 666.650 1261.677, 675.547 1265.779, 679.271 1267.648 C 682.995 1269.517, 694.020 1274.375, 703.771 1278.443 C 713.522 1282.511, 725.550 1287.720, 730.500 1290.018 C 762.863 1305.044, 772.908 1308.764, 812.822 1320.507 C 840.414 1328.625, 865.639 1332.277, 906.155 1334.020 C 923.619 1334.771, 933.389 1334.768, 939.655 1334.011 C 951.126 1332.624, 959.929 1330.924, 960.510 1329.983 C 960.764 1329.573, 959.824 1259.546, 958.422 1174.368 C 956.219 1040.617, 955.669 1019.344, 954.386 1018.353 C 952.172 1016.645, 870.141 988.983, 867.646 989.104 C 866.466 989.161, 815.325 1011.652, 754 1039.084 M 989.701 1047.734 C 990.230 1072.624, 994 1305.183, 994 1312.916 L 994 1319.263 997.898 1318.741 C 1004.810 1317.813, 1057.030 1296.298, 1069.281 1289.329 C 1079.668 1283.421, 1097.098 1275.139, 1122 1264.281 C 1157.706 1248.712, 1162.322 1246.900, 1192 1236.811 C 1208.225 1231.296, 1225.775 1225.093, 1231 1223.028 C 1245.160 1217.432, 1252.521 1215.126, 1274 1209.556 L 1293.500 1204.500 1293.762 1168.971 L 1294.025 1133.442 1143.762 1082.317 C 1061.118 1054.198, 992.560 1030.916, 991.412 1030.580 C 989.340 1029.973, 989.327 1030.107, 989.701 1047.734 M 614 1101.681 C 610.406 1103.240, 448.236 1175.585, 439.816 1179.386 L 435.132 1181.500 440.034 1192.500 L 444.936 1203.500 450.718 1204.228 C 453.898 1204.628, 461 1205.391, 466.500 1205.924 C 505.301 1209.684, 513.836 1210.962, 534.080 1216.039 C 549.386 1219.878, 581.159 1229.456, 603.430 1236.945 C 613.291 1240.261, 621.557 1242.776, 621.799 1242.535 C 622.275 1242.058, 620.398 1144.068, 619.389 1116.750 C 619.049 1107.537, 618.485 1100.037, 618.135 1100.082 C 617.786 1100.126, 615.925 1100.846, 614 1101.681 M 1314.780 1169.096 C 1314.626 1184.549, 1314.818 1197.389, 1315.206 1197.628 C 1315.595 1197.868, 1318.745 1197.411, 1322.206 1196.612 C 1334.209 1193.843, 1363.578 1189.062, 1379 1187.366 C 1389.887 1186.169, 1402.387 1185.680, 1421 1185.724 C 1435.575 1185.757, 1446.825 1185.540, 1446 1185.240 C 1439.481 1182.873, 1316.103 1141, 1315.648 1141 C 1315.325 1141, 1314.935 1153.643, 1314.780 1169.096" stroke="none" fill="#ffffff" fill-rule="evenodd"/></svg>