<svg xmlns="http://www.w3.org/2000/svg" width="60" height="60" viewBox="0 0 1235 1233" version="1.1"><path d="M 591.500 1.614 C 524.930 5.195, 463.030 17.769, 404 39.702 C 275.847 87.317, 167.876 175.286, 95.192 291.302 C 42.074 376.086, 10.503 473.109, 3.039 574.500 C 1.525 595.058, 1.778 645.461, 3.500 666.500 C 6.356 701.386, 10.696 728.265, 19.082 763 C 55.214 912.660, 146.925 1043.921, 275.500 1129.994 C 360.896 1187.161, 458.613 1221.776, 561.937 1231.459 C 584.684 1233.591, 651.316 1233.591, 674.063 1231.459 C 874.947 1212.633, 1052.890 1098.212, 1152.987 923.500 C 1195.857 848.673, 1222.067 766.594, 1231.538 677.500 C 1233.716 657.014, 1234.601 600.400, 1233.086 578.500 C 1227.371 495.915, 1207.703 421.509, 1172.519 349.366 C 1147.597 298.267, 1120.723 257.190, 1084.612 215 C 1074.492 203.177, 1037.935 166.292, 1025 154.855 C 927.684 68.803, 802.009 15.075, 671 3.516 C 653.975 2.014, 605.588 0.856, 591.500 1.614 M 584.500 57.069 C 468.439 62.613, 353.947 105.154, 263 176.525 C 235.100 198.420, 203.169 228.962, 182.203 253.809 C 113.846 334.819, 70.702 431.684, 55.604 538.047 C 51.141 569.489, 50.502 579.654, 50.547 618.500 C 50.605 669.098, 53.885 698.892, 64.639 746.500 C 69.857 769.600, 83.376 813.380, 85.109 812.791 C 85.581 812.631, 124.879 794.500, 172.438 772.500 L 258.909 732.500 258.317 666.500 C 257.991 630.200, 257.669 600.419, 257.600 600.321 C 257.532 600.223, 233.856 598.986, 204.988 597.572 C 151.245 594.941, 141.740 593.947, 129.500 589.677 C 111.673 583.458, 85.068 569.547, 77.390 562.430 C 73.444 558.772, 73 557.900, 73 553.815 C 73 548.693, 75.622 544.474, 79.792 542.889 C 81.505 542.238, 95.589 542.741, 123.411 544.448 C 166.008 547.062, 211.278 549.506, 235.500 550.500 C 243.200 550.816, 251.369 551.304, 253.654 551.584 L 257.809 552.094 258.291 503.297 C 258.682 463.767, 259.070 453.266, 260.335 448 C 265.780 425.334, 276.994 400.244, 285.263 392.230 C 287.064 390.484, 290.294 388.447, 292.440 387.704 L 296.341 386.354 291.957 384.600 C 281.958 380.599, 268.663 373.415, 267.241 371.244 C 265.039 367.884, 266.800 364.675, 271.642 363.229 C 273.764 362.594, 285.400 361.598, 297.500 361.014 C 316.248 360.110, 321.791 360.197, 335 361.604 C 348.274 363.018, 368.582 363.323, 476.414 363.725 L 602.328 364.195 601.705 285.847 C 601.215 224.247, 601.379 202.987, 602.472 186.387 C 604.066 162.193, 607.923 137.342, 611.999 125 C 613.543 120.325, 615.336 114.518, 615.983 112.096 C 617.730 105.561, 626.555 88.262, 631.241 82.188 C 641.861 68.421, 647.702 73.077, 648.568 96 C 649.025 108.080, 649.994 259.152, 649.997 318.770 L 650 364.040 720.250 363.566 C 758.888 363.305, 794.550 363.073, 799.500 363.051 C 812.669 362.991, 851.001 364.840, 862 366.066 C 892.112 369.422, 933.197 377.640, 942.095 382.086 C 946.772 384.423, 952 390.426, 952 393.458 C 952 396.704, 947.642 401.649, 943.717 402.856 C 940.648 403.800, 934.707 404.528, 921.500 405.577 C 895.468 407.646, 859.663 408.342, 761.665 408.687 L 649.831 409.081 650.533 532.291 C 650.919 600.056, 651.520 655.776, 651.867 656.114 C 652.215 656.451, 667.575 662.149, 686 668.775 C 714.669 679.086, 755.475 693.805, 914 751.017 C 927.475 755.880, 939.240 760.146, 940.144 760.496 C 941.602 761.061, 941.855 759.626, 942.379 747.816 C 942.704 740.492, 943.125 703.491, 943.313 665.592 L 943.657 596.684 888.159 597.285 C 835.651 597.853, 832.145 597.780, 823.081 595.928 C 797.934 590.790, 780.279 582.911, 768.305 571.481 C 761.373 564.864, 760.515 562.157, 763.962 557.776 C 765.719 555.541, 766.890 555.216, 775.212 554.646 C 810.326 552.242, 831.062 551.731, 884.623 551.952 L 943.745 552.197 944.435 498.848 C 945.365 427.016, 945.533 425.456, 955.678 394.500 C 967.565 358.231, 970.904 350.602, 978.437 342.513 C 983.123 337.481, 983.849 337.245, 986.932 339.750 C 989.722 342.017, 990.567 348.141, 992.002 376.500 C 993.271 401.587, 993.553 494.424, 992.464 528.777 L 991.735 551.775 1008.118 552.376 C 1017.128 552.706, 1034.175 552.869, 1046 552.738 C 1075.197 552.415, 1086.195 554.762, 1115.806 567.632 C 1130.006 573.804, 1136.351 577.845, 1138.564 582.123 C 1139.991 584.884, 1139.987 585.371, 1138.513 587.621 C 1136.266 591.050, 1134.041 591.680, 1121.479 592.444 C 1115.441 592.810, 1104.875 593.738, 1098 594.504 C 1063.719 598.324, 1044.343 598.947, 1007.915 597.399 L 992.330 596.736 991.666 638.118 C 991.301 660.878, 991.002 701.843, 991.001 729.152 L 991 778.804 993.750 779.805 C 995.263 780.355, 1010.225 785.749, 1027 791.791 C 1059.486 803.492, 1132.696 829.953, 1134.700 830.718 C 1136.319 831.336, 1137.864 827.478, 1147 800 C 1160.756 758.626, 1168.365 723.262, 1173.681 676 C 1175.889 656.376, 1176.215 591.388, 1174.203 572 C 1165.280 485.990, 1141.361 410.437, 1100.658 339.694 C 1030.085 217.033, 915.853 125.238, 781 82.821 C 734.409 68.166, 685.037 59.443, 635 57.026 C 612.498 55.939, 608.067 55.943, 584.500 57.069 M 298.205 388.115 C 301.072 390.444, 302.065 394.818, 303.046 409.452 C 303.564 417.178, 304.503 428.225, 305.133 434 C 305.879 440.843, 306.209 463.566, 306.080 499.250 C 305.971 529.362, 306.021 554.007, 306.191 554.016 C 306.361 554.025, 327.875 555.124, 354 556.459 C 380.125 557.794, 403.750 559.357, 406.500 559.932 C 409.250 560.508, 417.691 562.123, 425.257 563.521 C 436.600 565.618, 442.553 567.460, 459.182 574.023 C 492.874 587.319, 499.996 593.373, 494.483 604.033 C 492.017 608.802, 487.797 610.332, 477.500 610.193 C 465.060 610.024, 337.138 604.588, 317.250 603.382 L 307 602.761 307 656.488 C 307 699.080, 307.259 710.106, 308.250 709.692 C 308.938 709.405, 349.550 690.635, 398.500 667.981 C 519.919 611.788, 517.216 612.999, 522.775 612.340 C 528.130 611.706, 526.774 611.282, 576.265 629.053 C 590.436 634.141, 602.181 638.123, 602.367 637.902 C 602.552 637.681, 602.486 586.087, 602.219 523.250 L 601.734 409 488.414 409 L 375.094 409 360.797 405.919 C 352.934 404.224, 343.575 402.008, 340 400.995 C 322.018 395.896, 317.809 394.585, 309.500 391.492 C 295.539 386.295, 296.211 386.496, 298.205 388.115 M 516 666.660 C 510.775 669.136, 477.700 684.456, 442.500 700.705 C 330.972 752.188, 309.521 762.170, 308.655 762.990 C 308.190 763.430, 308.142 795.844, 308.549 835.020 L 309.289 906.250 318.895 910.684 C 324.178 913.122, 336.150 918.959, 345.500 923.654 C 354.850 928.349, 367.884 934.414, 374.464 937.130 C 381.045 939.846, 388.470 943.212, 390.964 944.609 C 400.944 950.199, 433.732 962.668, 455 968.960 C 462.975 971.320, 474.450 974.798, 480.500 976.690 C 486.550 978.582, 493.300 980.504, 495.500 980.960 C 536.664 989.502, 536.641 989.499, 565 991.085 C 580.024 991.925, 587.877 991.938, 594.399 991.134 C 599.293 990.530, 603.388 989.916, 603.498 989.768 C 603.609 989.621, 603.430 922.068, 603.100 839.652 L 602.500 689.803 565.500 676.401 C 545.150 669.029, 527.825 662.809, 527 662.578 C 526.175 662.347, 521.225 664.184, 516 666.660 M 651 750.776 C 651 774.917, 651.299 835.847, 651.664 886.176 L 652.327 977.683 654.914 976.432 C 656.336 975.744, 661.474 973.552, 666.331 971.562 C 671.189 969.571, 678.839 966.217, 683.331 964.109 C 687.824 962, 699.825 956.575, 710 952.053 C 733.724 941.509, 735.145 940.851, 756 930.723 C 800 909.355, 846.120 889.720, 871 881.763 C 879.525 879.036, 888.525 875.981, 891 874.973 C 895.571 873.112, 905.115 870.109, 928.500 863.176 L 941.500 859.321 941.768 835.842 L 942.035 812.363 849.768 779.043 C 799.020 760.717, 733.885 737.199, 705.022 726.780 C 676.160 716.361, 652.197 707.622, 651.772 707.359 C 651.348 707.097, 651 726.634, 651 750.776 M 235 796.571 C 222.625 802.337, 190.347 817.281, 163.270 829.778 C 136.194 842.275, 114.032 852.791, 114.020 853.147 C 114.009 853.502, 117.937 854.322, 122.750 854.968 C 137.160 856.902, 154.364 860.444, 175 865.726 C 185.725 868.471, 199.450 871.918, 205.500 873.385 C 220.442 877.010, 253.195 885.986, 257.478 887.630 C 258.828 888.148, 259 882.452, 259 837.107 C 259 808.998, 258.663 786.019, 258.250 786.043 C 257.837 786.066, 247.375 790.804, 235 796.571 M 990 839.412 C 990 848.877, 990.038 849.030, 992.250 848.534 C 993.487 848.257, 998.775 847.340, 1004 846.497 C 1016.194 844.529, 1023.002 842.971, 1022.991 842.150 C 1022.984 841.624, 1013.937 838.226, 991.250 830.227 C 990.306 829.894, 990 832.143, 990 839.412" stroke="none" fill="#ffffff" fill-rule="evenodd"/></svg>